<svg version="1.1" id="Layer_1" xmlns="http://www.w3.org/2000/svg" xmlns:xlink="http://www.w3.org/1999/xlink" x="0px" y="0px"
	 width="100%" viewBox="0 0 544 544" enable-background="new 0 0 544 544" xml:space="preserve">
<path fill="#000000" opacity="1.000000" stroke="none" 
	d="
M545.000000,245.000000 
	C545.000000,266.687561 545.000000,288.375122 544.800598,310.796295 
	C533.291748,326.279022 518.753113,335.286804 499.905945,336.511444 
	C495.942963,336.768951 494.200226,338.832672 493.200439,342.551636 
	C489.296753,357.072449 483.729919,371.013763 476.205627,383.994110 
	C473.090851,389.367493 474.019379,392.556091 477.690704,396.991211 
	C499.003418,422.738129 492.603180,462.977905 464.594635,481.108490 
	C442.240753,495.578674 415.346375,493.933655 394.569397,476.772644 
	C392.213623,474.826813 390.388519,472.981262 386.778656,475.051208 
	C372.291473,483.358185 356.971436,489.857635 340.842865,494.218536 
	C335.993683,495.529694 335.865051,498.981750 335.527252,502.593170 
	C334.267365,516.064209 328.585876,527.458191 319.354401,537.159973 
	C316.726074,539.922241 313.793213,542.394714 311.000000,545.000000 
	C289.312439,545.000000 267.624878,545.000000 245.265472,544.737671 
	C230.083954,533.351501 221.563522,518.813782 220.082581,500.504791 
	C219.745270,496.334595 217.808884,494.886536 214.135483,493.900909 
	C198.617401,489.737000 183.960068,483.345032 169.934143,475.601379 
	C166.375610,473.636719 164.240173,473.898163 161.207367,476.444336 
	C146.178146,489.061981 128.854080,493.337280 109.828499,488.638000 
	C67.882072,478.277313 51.732449,428.184875 79.549187,394.987610 
	C82.354088,391.640167 82.662514,389.241089 80.477005,385.373444 
	C72.922768,372.004944 66.754692,357.968842 62.855679,343.074707 
	C61.673939,338.560486 59.787548,336.712036 54.823219,336.271729 
	C31.634903,334.215302 15.017384,322.478455 5.487126,301.077057 
	C3.867469,297.439911 2.489586,293.695068 1.000001,290.000000 
	C1.000000,282.645752 1.000000,275.291504 1.213479,267.190277 
	C1.803650,265.523346 2.253881,264.626129 2.546295,263.680115 
	C10.253387,238.746689 29.167122,223.200073 55.230713,220.808319 
	C59.384838,220.427094 61.485981,218.908188 62.600010,214.974655 
	C66.835335,200.020111 72.740479,185.703262 80.295708,172.138336 
	C82.692268,167.835480 82.448677,165.093170 79.160301,161.226379 
	C55.136856,132.977493 62.285057,91.425873 94.078110,72.984436 
	C114.620079,61.069149 142.132767,63.386551 159.934647,78.975830 
	C164.162338,82.678070 167.224319,83.449501 172.472061,80.530754 
	C185.284592,73.404549 198.784119,67.584946 213.046509,63.902058 
	C217.740051,62.690075 219.787918,60.558430 220.243225,55.438110 
	C222.536926,29.642550 236.153625,12.328708 260.485077,3.445390 
	C262.663879,2.649919 264.828705,1.816044 267.000000,1.000000 
	C273.354401,1.000000 279.708801,1.000000 286.862549,1.155934 
	C296.889252,3.745940 305.890503,6.840033 313.408142,12.901929 
	C326.439362,23.409698 334.392059,36.873592 335.382568,53.827396 
	C335.709045,59.415237 337.650696,62.400337 343.404205,63.827381 
	C357.697357,67.372505 370.973145,73.666451 383.775574,80.819176 
	C388.171631,83.275253 390.885712,83.174088 394.960266,79.701538 
	C413.478241,63.919594 434.562653,60.141880 456.817139,70.178780 
	C479.610443,80.458679 491.112305,99.099426 491.183167,124.080673 
	C491.224823,138.767487 485.503143,151.630066 475.506897,162.471512 
	C473.764679,164.361038 472.075653,165.931595 473.826172,168.915451 
	C482.454529,183.623184 488.954285,199.264877 493.534576,215.675552 
	C494.557709,219.341385 496.477386,220.537445 500.202728,220.822952 
	C515.960693,222.030640 529.356628,228.338348 540.018860,240.190277 
	C541.556519,241.899506 542.751221,244.010361 545.000000,245.000000 
M292.280792,492.325134 
	C294.053467,486.006378 291.042908,481.460876 286.634094,477.609863 
	C286.877472,477.091431 286.957886,476.741364 287.166748,476.504578 
	C288.473175,475.023590 289.334045,473.393127 287.949951,471.600861 
	C286.957489,470.315674 285.446198,470.720825 284.284058,471.358582 
	C282.321136,472.435699 282.104492,474.132843 283.175507,476.023468 
	C283.589874,476.755005 284.214294,477.688049 283.401733,478.256104 
	C278.752899,481.505829 280.807251,485.263824 282.251251,489.165710 
	C282.940948,491.029327 282.359253,493.062775 281.934540,495.053925 
	C281.248901,498.268188 279.207855,501.828186 280.730591,504.738098 
	C282.765991,508.627716 282.634277,512.728821 283.479706,516.962769 
	C284.225800,514.259216 283.192108,511.436432 285.400940,508.701691 
	C286.982574,512.079407 285.937592,515.240784 286.668762,518.640442 
	C288.413269,514.448486 287.009430,510.054932 289.604431,506.679016 
	C290.773956,505.157532 290.676666,503.581848 290.042999,501.966949 
	C288.680542,498.494507 289.344910,495.502380 291.993469,492.983490 
	C291.993469,492.983490 291.954681,493.027130 292.280792,492.325134 
M458.435974,322.097382 
	C441.884216,306.590057 435.096161,287.589935 440.459869,265.518494 
	C446.415771,241.010376 462.526581,226.257095 487.468292,221.582520 
	C491.259216,220.872009 492.705200,219.442993 491.331482,215.528839 
	C487.968658,205.947052 484.805908,196.305527 480.449310,187.093246 
	C477.409546,180.665573 474.593689,174.143219 470.797546,168.423080 
	C468.811005,168.318741 467.862366,169.352417 466.787781,170.100250 
	C453.854614,179.100739 439.431824,182.401382 424.035828,179.983322 
	C382.341187,173.434875 361.697571,125.843788 385.211517,90.687706 
	C387.843262,86.752914 387.436890,84.872520 383.293579,82.661949 
	C370.750458,75.969864 357.525726,71.000214 344.127319,66.422974 
	C336.160126,63.701172 336.142822,63.751801 334.327515,72.179504 
	C327.432526,104.190254 291.704559,124.560684 260.785645,114.118782 
	C238.801346,106.694275 225.600632,91.468498 220.985825,68.860909 
	C220.161636,64.823257 218.608002,63.885818 214.878113,65.118279 
	C199.984756,70.039505 185.432190,75.720894 171.681488,83.363632 
	C168.666611,85.039322 167.777084,86.719658 170.002838,89.589989 
	C170.815674,90.638199 171.429184,91.839981 172.145935,92.963852 
	C191.242416,122.906982 177.272217,164.888718 143.925598,177.315948 
	C124.991936,184.371933 106.906624,182.245087 90.082054,171.035614 
	C86.450638,168.616165 84.638000,168.746063 82.467773,172.833801 
	C75.173828,186.572311 69.418221,200.899719 64.707474,215.695938 
	C63.449451,219.647324 64.777046,221.063919 68.646927,221.650574 
	C99.724510,226.361725 121.899422,257.645233 115.763969,288.391022 
	C110.633553,314.100433 94.883759,329.669159 69.414917,335.513153 
	C63.569218,336.854462 63.390774,337.051910 65.169853,342.824158 
	C69.498123,356.867249 75.150986,370.365723 81.923889,383.402832 
	C84.782066,388.904510 84.753929,388.919128 89.823402,385.332764 
	C109.940094,371.101288 137.810852,371.074860 157.321960,385.268829 
	C183.720200,404.473022 189.441895,440.091492 170.229416,466.797943 
	C167.721237,470.284454 167.994781,471.875946 171.760712,473.946930 
	C185.701157,481.613098 200.439270,487.245575 215.561386,492.010132 
	C218.774933,493.022644 220.246750,492.036774 220.645447,488.744843 
	C221.662598,480.347046 224.481720,472.542664 229.126099,465.491058 
	C242.768707,444.777191 266.751709,434.838104 290.191650,440.050598 
	C314.246338,445.399750 331.669495,464.198425 335.255768,489.013519 
	C335.777588,492.624359 336.964630,492.918579 340.145660,492.024292 
	C355.460632,487.718689 369.894836,481.349915 383.973358,474.048523 
	C387.801758,472.063049 387.870392,470.093628 385.448761,466.661652 
	C375.278870,452.248779 372.199860,436.223236 376.279602,419.119629 
	C385.756256,379.390320 431.142731,362.582916 466.046753,385.863983 
	C469.812927,388.376038 471.589630,388.066803 473.651489,384.112366 
	C480.758545,370.481628 486.570587,356.338196 491.373077,341.748962 
	C492.617462,337.968689 491.604187,336.350800 487.615967,335.784119 
	C476.788849,334.245758 467.295532,329.625641 458.435974,322.097382 
M444.015320,439.067749 
	C442.489838,437.239655 439.964569,437.917908 438.140930,436.644287 
	C432.762451,432.887787 424.110931,436.771210 423.395050,443.381287 
	C423.070343,446.379242 421.838074,447.451538 419.003326,447.401489 
	C414.849396,447.328125 410.689667,447.510529 406.538269,447.386871 
	C402.679291,447.271912 401.204895,449.015625 401.222015,452.799957 
	C401.238403,456.421783 401.915558,459.107269 406.270050,459.102570 
	C424.886322,459.082458 443.502563,459.078705 462.118835,459.065399 
	C465.460205,459.063019 466.817108,457.347137 466.818787,454.049866 
	C466.820557,450.557556 465.093292,449.306519 461.854614,449.411255 
	C459.862457,449.475708 457.865753,449.400330 455.871094,449.387604 
	C446.025513,449.324799 446.025513,449.324799 444.015320,439.067749 
M425.190613,144.430923 
	C427.022797,137.222641 425.719971,130.515976 421.644135,124.407280 
	C419.531494,121.240974 416.727325,119.222115 412.873260,121.979630 
	C411.417664,123.021080 410.198669,122.972008 408.817566,121.934227 
	C406.484497,120.181107 404.175507,120.848473 401.793915,121.997444 
	C394.092560,125.712852 390.687378,140.515274 395.993561,147.426117 
	C396.902863,148.610382 397.806305,150.229324 399.556641,149.066086 
	C401.330688,147.887100 400.133514,146.370880 399.397736,145.129898 
	C396.945862,140.994614 397.332428,137.126724 400.113403,133.011948 
	C403.236938,136.528748 398.267395,144.653748 406.381409,144.029282 
	C411.672180,143.622101 419.289307,148.223099 421.405396,138.444946 
	C424.284912,142.632919 420.345917,146.771088 421.531769,151.243256 
	C422.603271,150.480743 423.193359,150.286438 423.343567,149.914459 
	C423.964966,148.375687 424.453308,146.783157 425.190613,144.430923 
M105.567970,406.001709 
	C95.943207,412.661133 91.278847,421.884796 91.372200,433.545288 
	C91.389610,435.719696 91.272949,438.359436 94.381653,438.232147 
	C97.203659,438.116638 98.650002,436.407104 98.673386,433.254028 
	C98.748428,423.135040 102.864166,415.250549 112.217636,410.682617 
	C121.779449,406.012939 130.600586,407.601807 138.642410,414.277740 
	C140.073105,415.465424 141.204407,416.053619 142.992599,414.775757 
	C146.560760,412.225891 145.065140,410.232666 142.630463,408.072052 
	C133.407120,399.886993 118.622955,398.864258 105.567970,406.001709 
M454.614807,113.157990 
	C453.562836,117.044197 455.844818,119.724228 458.321838,122.420227 
	C457.587006,123.188576 457.134369,123.950943 456.465271,124.311073 
	C453.654480,125.823975 452.210388,128.118958 451.152161,131.155273 
	C449.856598,134.872650 450.526062,137.037216 454.249969,138.377548 
	C454.771637,138.565323 455.126617,139.804321 455.185333,140.584808 
	C455.394653,143.367752 456.649750,144.806366 459.576050,144.863663 
	C462.741699,144.925644 464.503082,143.696503 465.092926,140.453674 
	C465.402802,138.749817 466.006348,136.944916 467.483673,135.680557 
	C469.321564,136.689438 468.804382,139.031784 470.496857,140.535812 
	C471.790100,132.458893 470.114746,126.013092 461.417389,122.118042 
	C466.585480,119.744537 467.449677,116.427376 466.450165,112.548737 
	C465.812256,110.073158 463.950623,108.691505 461.390259,108.384720 
	C458.150696,107.996544 455.900848,109.274406 454.614807,113.157990 
M248.800537,73.960083 
	C249.589523,77.831970 248.322189,82.070183 250.805023,86.997902 
	C254.306244,81.261444 251.354233,75.609673 253.766418,70.417496 
	C257.202820,75.367317 252.570312,81.303398 256.661438,86.643425 
	C260.797913,75.456635 256.685028,64.438667 260.111023,54.136547 
	C262.701904,55.616467 261.176849,58.689934 263.736328,60.695400 
	C263.526642,55.730442 263.145111,51.635132 261.527802,47.770863 
	C260.669373,45.719776 259.224091,43.569199 256.779419,44.154518 
	C254.051651,44.807625 254.642715,47.308289 254.863983,49.544319 
	C255.189972,52.838997 256.234619,56.285732 253.918335,59.865719 
	C250.873764,55.871906 253.198364,51.814255 252.670288,48.067066 
	C252.456863,46.552685 252.497467,44.920013 250.864868,44.265503 
	C249.126541,43.568604 247.625259,44.425011 246.351395,45.603069 
	C243.508316,48.232334 242.324570,55.575504 244.056046,59.649872 
	C246.605560,57.757504 244.361603,53.899918 247.095795,51.620979 
	C249.737228,55.341675 245.516068,62.147717 253.534851,62.498604 
	C248.029861,65.669075 248.029861,65.669075 248.800537,73.960083 
M313.085297,481.573792 
	C309.340607,479.687256 308.477142,481.551605 308.238281,484.974213 
	C307.981140,488.658966 309.405792,492.661163 306.983002,496.693390 
	C306.114288,495.666168 305.678558,495.354126 305.526184,494.938232 
	C304.437134,491.965485 305.910004,489.000763 305.610382,486.028625 
	C305.422089,484.161102 306.462463,481.503052 303.864319,480.874725 
	C301.275818,480.248779 300.043610,482.639038 299.312866,484.631653 
	C298.463348,486.947998 298.051819,489.439850 297.614685,491.884918 
	C297.450043,492.806061 297.430206,493.886688 298.250702,494.686157 
	C299.539093,494.505066 299.306763,491.997650 301.429657,492.832123 
	C303.491425,502.138275 300.975861,512.019836 304.195007,521.377014 
	C306.619049,516.572937 304.752014,511.196198 306.453918,505.620392 
	C309.229126,510.718445 307.153107,516.167603 309.369965,521.562195 
	C313.302979,513.524231 312.203979,502.619965 307.399902,498.554932 
	C314.455719,498.297577 311.140503,492.095703 313.526306,488.043427 
	C314.338226,491.567841 314.967834,494.300934 315.597412,497.034027 
	C316.968414,491.658752 317.144745,486.535675 313.085297,481.573792 
M136.717224,119.935265 
	C138.276459,121.674255 138.687851,123.797363 138.425354,125.991829 
	C138.011917,129.448044 137.502991,132.900955 136.833633,136.315903 
	C136.281906,139.130737 136.401077,141.429092 139.900177,141.795288 
	C142.553680,142.072983 143.050400,143.766281 143.092636,145.972504 
	C143.134811,148.175491 143.275070,150.376587 143.372345,152.578522 
	C143.867905,152.568207 144.363480,152.557892 144.859039,152.547577 
	C144.859039,149.944382 143.931717,146.831665 145.030365,144.832123 
	C148.531464,138.460175 146.005646,132.738113 144.234604,126.820198 
	C143.669586,124.932228 143.893845,122.697701 145.017471,121.558487 
	C149.219467,117.298187 146.362320,114.633492 143.004471,111.908958 
	C144.654404,109.548576 146.366013,107.262009 143.779190,104.761238 
	C142.687378,103.705757 141.290054,103.609726 140.102020,104.442993 
	C136.544724,106.938034 139.674561,109.765038 140.032578,112.366798 
	C138.027634,114.373672 135.787582,116.076485 136.717224,119.935265 
M307.993713,62.318775 
	C307.107208,58.174419 304.310211,53.942307 308.342377,49.923496 
	C311.145508,51.327492 309.856720,54.054230 310.732330,56.259052 
	C311.625244,50.401482 309.632629,45.962315 305.034241,42.570259 
	C305.631897,41.784512 306.039185,41.284286 306.408325,40.757320 
	C307.670837,38.954887 307.215118,37.263939 305.871368,35.800156 
	C304.980774,34.829960 303.732880,34.803322 302.685608,35.561073 
	C301.085510,36.718811 301.202515,38.382168 301.634857,40.074619 
	C301.873871,41.010132 302.548645,42.572674 302.244812,42.798019 
	C297.481842,46.330681 300.057587,50.314980 301.291199,54.284359 
	C301.795990,55.908524 301.095978,57.525963 300.814178,59.159782 
	C300.284882,62.228657 298.114075,65.672333 299.813995,68.330437 
	C302.009857,71.763985 301.690826,75.408844 302.244019,79.417465 
	C303.286530,77.466568 302.183716,75.211098 304.395325,74.223068 
	C306.062164,76.484917 304.578827,79.391014 306.188629,82.191307 
	C306.642303,78.484756 306.166870,74.890022 307.609894,72.412788 
	C309.551605,69.079414 309.291870,66.264465 307.993713,62.318775 
M111.869217,116.888680 
	C110.693901,115.226677 109.450798,113.371414 107.078842,114.275314 
	C104.904343,115.103951 105.366127,117.279846 105.397621,119.060905 
	C105.444534,121.714508 105.613632,124.366295 105.750908,127.017815 
	C105.835587,128.653503 106.094467,130.341385 104.021820,131.293198 
	C102.211967,130.227921 102.591339,128.494934 102.608612,126.899849 
	C102.639221,124.072609 102.723083,121.245399 102.711555,118.418480 
	C102.704834,116.770859 102.897408,114.824539 100.983994,114.107422 
	C98.820175,113.296463 96.903152,114.463577 95.770523,116.119781 
	C92.579407,120.786011 91.692429,125.939804 92.940132,131.753189 
	C95.407944,130.489487 94.370728,128.563721 94.762352,127.105049 
	C95.208206,125.444382 95.231659,123.621750 96.853790,121.998299 
	C98.383362,124.638443 98.125771,127.104416 97.877899,129.537277 
	C97.640182,131.870499 98.226921,133.372818 100.888367,133.685440 
	C107.292564,134.437653 109.311775,133.324158 111.561768,127.346634 
	C112.952873,128.718277 112.363220,131.197540 114.494003,132.603699 
	C115.186592,126.986069 114.111458,122.195312 111.869217,116.888680 
M109.544708,452.128998 
	C108.068176,451.067505 106.657997,449.893799 105.098862,448.972046 
	C103.007217,447.735474 101.213882,448.741821 99.794083,450.258972 
	C98.388474,451.760925 99.529213,453.122833 100.601379,454.121796 
	C107.562813,460.607788 115.598206,464.305939 125.339233,463.107788 
	C127.208710,462.877808 129.699036,462.790894 129.178757,459.783203 
	C128.735626,457.221588 127.433029,455.769043 124.387314,456.051056 
	C119.309502,456.521210 114.568115,455.115082 109.544708,452.128998 
M107.243301,157.889404 
	C110.655731,152.141327 109.153236,145.717911 109.704712,139.585556 
	C110.036674,135.894135 107.629555,135.263870 104.540062,135.332138 
	C101.394958,135.401642 98.158356,135.188858 98.335739,139.668579 
	C98.565742,145.477478 98.989555,151.279449 99.395645,157.079803 
	C99.455231,157.930832 100.000519,158.623657 101.758911,158.622025 
	C104.370087,152.828354 101.405563,145.769058 104.483322,138.716095 
	C105.881226,143.041031 105.017792,146.236786 105.415543,149.330948 
	C105.780525,152.170166 104.102043,155.317245 107.243301,157.889404 
M97.350945,267.899109 
	C98.666283,264.567932 102.389023,262.168854 101.563705,257.683624 
	C98.121887,257.384949 96.930206,259.831482 95.660851,261.788727 
	C91.508301,268.191650 87.508362,274.694153 83.490746,281.183746 
	C81.656891,284.145935 79.903099,287.158234 78.145714,290.166931 
	C77.482391,291.302521 76.559639,292.578491 78.044640,293.686279 
	C79.736412,294.948334 80.780281,293.576111 81.771202,292.454193 
	C82.205254,291.962769 82.512894,291.358124 82.867531,290.798309 
	C87.571327,283.372650 92.273262,275.945801 97.350945,267.899109 
M139.651138,85.866699 
	C135.706955,83.255005 131.337875,84.481171 127.135849,84.623802 
	C125.342285,84.684662 124.414253,86.235306 124.049004,88.033653 
	C123.085564,92.777359 124.734146,94.181831 132.314453,94.981842 
	C139.828934,95.774902 141.593063,93.858559 139.651138,85.866699 
M104.226448,85.671997 
	C101.884277,92.766129 104.423630,96.014168 111.353836,94.848228 
	C112.492516,94.656662 113.677933,94.655769 114.837677,94.693184 
	C118.062881,94.797256 119.873711,93.506790 119.884735,90.058846 
	C119.895226,86.779564 118.839081,84.403587 115.159470,84.405136 
	C111.709572,84.406593 108.177582,83.591103 104.226448,85.671997 
M250.307846,519.992554 
	C250.567154,514.694946 250.837280,509.397797 251.079895,504.099426 
	C251.165146,502.237640 250.625381,500.901031 248.441711,500.632416 
	C243.615051,500.038727 241.229095,502.002289 241.234085,506.805908 
	C241.237885,510.458374 241.293808,514.111938 241.402954,517.762695 
	C241.450180,519.341858 241.112595,521.227478 244.053757,521.759460 
	C247.131439,516.339722 243.114014,509.626984 246.890198,503.191833 
	C247.811646,508.884827 247.119934,513.487610 247.180832,518.068298 
	C247.222107,521.172729 247.310806,521.171570 250.307846,519.992554 
M429.414612,419.841339 
	C430.011627,422.600586 431.312408,425.387451 434.350983,424.988434 
	C437.098846,424.627594 438.377960,421.918365 438.607361,419.004395 
	C438.722870,417.536957 439.070190,416.074188 439.442749,414.643158 
	C440.500671,410.580200 438.701141,409.221954 434.826508,409.311005 
	C429.288269,409.438324 428.262207,410.554016 429.099976,416.090118 
	C429.247955,417.068024 429.293579,418.061371 429.414612,419.841339 
M405.451965,111.989433 
	C405.818481,115.598396 407.248932,119.160126 411.275116,118.401657 
	C416.482391,117.420700 415.483093,112.378540 415.645264,108.564499 
	C415.773163,105.557053 413.881744,103.829491 410.918213,104.214699 
	C406.974701,104.727287 404.450500,106.735886 405.451965,111.989433 
M236.399551,488.018005 
	C235.619370,491.127563 234.587250,494.236176 236.190750,497.923859 
	C238.672089,495.274963 236.643555,491.435974 239.516296,489.584930 
	C241.666321,496.738251 242.292511,497.845795 244.194260,497.672455 
	C244.389236,493.750458 244.621368,489.814514 244.763397,485.875366 
	C244.822861,484.226654 244.959610,482.285156 242.971451,481.669769 
	C240.753204,480.983124 239.145355,482.299988 238.024643,484.088226 
	C237.417419,485.057098 237.087479,486.199738 236.399551,488.018005 
M441.905151,97.618202 
	C444.263611,96.378662 444.581146,94.242447 443.923615,92.056725 
	C443.218842,89.713898 440.944885,89.638336 438.960571,89.524956 
	C437.310913,89.430702 435.615906,89.447403 433.992798,89.721504 
	C431.183136,90.195976 430.106201,92.161774 430.478790,94.828316 
	C430.855103,97.521606 432.678528,98.946671 435.303955,98.864502 
	C437.274475,98.802818 439.227875,98.194466 441.905151,97.618202 
M148.136948,430.615265 
	C151.110474,431.186249 153.860962,430.991821 153.411926,427.028534 
	C153.021286,423.580994 151.857986,420.239594 149.800446,417.321960 
	C148.866226,415.997223 147.753738,414.969116 146.079987,416.042267 
	C144.604980,416.988037 142.317780,417.891052 143.503326,420.143646 
	C145.210342,423.386932 145.180664,427.269928 148.136948,430.615265 
M253.012665,483.869171 
	C251.802017,482.637756 250.957260,480.368622 248.695908,481.541382 
	C246.954590,482.444489 247.350723,484.425720 247.438736,486.065674 
	C247.545578,488.056305 247.533356,490.098267 248.003433,492.012268 
	C248.512787,494.086243 246.128052,497.646820 249.219788,498.023865 
	C252.995895,498.484436 250.729401,494.075562 252.123383,492.287323 
	C252.215561,492.169128 252.370804,492.100067 252.670944,491.880951 
	C255.061325,493.479431 253.422577,496.788422 255.540237,499.260468 
	C256.028473,493.667664 255.164490,489.011444 253.012665,483.869171 
M140.530579,447.856354 
	C138.539948,450.094818 136.804932,452.513519 139.939850,454.994446 
	C142.995163,457.412476 144.260132,454.072021 145.890793,452.593292 
	C147.214371,451.393005 148.206757,449.791626 149.198654,448.271942 
	C150.106583,446.880951 151.142654,445.238220 149.120010,443.978485 
	C147.255646,442.817261 145.202286,441.888245 143.374725,444.175110 
	C142.547623,445.210052 141.747391,446.266479 140.530579,447.856354 
M100.977745,445.522430 
	C102.014046,442.919891 100.817970,441.283630 98.459373,440.576752 
	C96.815132,440.083984 94.928253,440.537140 94.042267,442.091980 
	C92.979698,443.956726 94.228363,445.711792 95.448868,447.000061 
	C97.459236,449.122040 98.988609,447.138824 100.977745,445.522430 
M106.986443,104.904907 
	C106.528946,102.877060 105.330284,102.016945 103.379951,102.948822 
	C101.056152,104.059128 100.779961,106.274399 101.066856,108.465759 
	C101.271690,110.030365 102.308830,111.342819 104.071121,111.162453 
	C106.094482,110.955360 106.563179,109.275276 106.742401,107.532700 
	C106.810020,106.875198 106.893738,106.219345 106.986443,104.904907 
M132.575912,460.321655 
	C135.538986,460.745270 138.611465,460.935913 137.373657,456.527527 
	C136.914505,454.892212 135.443024,452.781097 132.874649,454.027191 
	C129.672058,455.581085 131.420624,457.783508 132.575912,460.321655 
M310.138245,472.425049 
	C307.876801,469.693268 305.897949,470.141418 304.548309,473.170776 
	C303.947449,474.519440 304.208405,476.121155 305.327026,477.340118 
	C306.064117,478.143311 307.013306,478.462616 308.001312,477.945007 
	C309.967041,476.915161 310.861877,475.289459 310.138245,472.425049 
M478.435303,302.236572 
	C478.100677,300.168701 477.478394,298.326202 474.999695,298.012146 
	C473.882233,297.870544 472.772156,298.301727 472.725525,299.393524 
	C472.605621,302.202423 473.893280,304.427246 476.159210,306.121399 
	C477.530762,305.358978 477.710144,303.957062 478.435303,302.236572 
M248.544266,474.492920 
	C248.422668,472.928772 248.083450,471.385559 246.070023,471.683258 
	C244.146011,471.967743 243.518784,473.538269 243.473724,475.289734 
	C243.437332,476.704163 243.997284,478.010956 245.503830,478.197235 
	C247.587601,478.454926 248.259933,476.932709 248.544266,474.492920 
M255.257538,40.503895 
	C256.663025,38.657692 256.973175,36.774422 254.634491,35.600357 
	C253.030167,34.794968 251.593430,35.726772 251.413727,37.484516 
	C251.186874,39.703342 251.889618,41.459717 255.257538,40.503895 
M466.528839,147.238663 
	C467.336731,146.520981 468.642578,146.251373 468.728821,144.331833 
	C466.053192,145.939621 463.314484,146.526566 460.068146,146.266937 
	C461.794739,149.848648 463.814331,149.312576 466.528839,147.238663 
z"/>
<path fill="#000000" opacity="1.000000" stroke="none" 
	d="
M274.735901,356.999878 
	C274.736053,339.815338 274.736053,323.130798 274.736053,305.404022 
	C270.811584,307.666443 271.412750,310.167542 271.372406,312.292480 
	C270.935913,335.276459 270.559967,358.261597 270.164917,381.246368 
	C270.130524,383.245697 270.100281,385.245453 270.029724,387.243683 
	C269.629517,398.576996 267.928253,400.768097 256.804474,402.692261 
	C250.689896,403.750000 244.625458,405.743591 238.329498,405.174774 
	C237.346191,401.607056 239.766953,400.813538 241.705948,400.290802 
	C247.505127,398.727264 247.837646,394.824493 247.583710,389.655609 
	C246.219681,361.888733 244.958603,334.121277 242.970276,306.385712 
	C242.549942,300.522461 240.960526,294.113098 245.598312,288.702301 
	C246.391357,287.777069 245.452850,285.983551 244.379288,284.697662 
	C240.225220,279.721954 239.940140,274.364807 241.497910,267.988739 
	C244.363815,256.258240 241.323181,244.370209 241.047623,232.448196 
	C237.110153,236.112717 237.259399,241.078705 236.536301,245.541992 
	C234.431747,258.532043 235.263000,271.734436 234.312347,284.820221 
	C234.247406,285.714172 234.854095,286.674530 235.214081,287.577850 
	C235.810028,289.073151 233.854538,298.912262 232.618561,299.780273 
	C230.726608,301.108948 229.057495,300.013702 227.632706,298.865173 
	C220.630417,293.220581 216.421951,285.862854 216.925217,276.868256 
	C217.723251,262.606049 217.332413,248.204193 220.681732,234.162262 
	C222.883224,224.932571 225.013382,215.682892 229.554108,207.205673 
	C232.085556,202.479630 235.390747,198.911102 240.682297,197.095551 
	C245.709305,195.370712 250.523438,193.016815 255.404800,190.879288 
	C258.345581,189.591522 260.936249,189.569763 262.748138,192.655197 
	C264.278229,195.260742 266.555756,195.547195 268.893524,194.752716 
	C271.259583,196.043411 269.343842,198.975937 271.598328,200.095428 
	C274.694214,199.984100 272.913910,196.756546 274.688110,195.445282 
	C276.036133,195.129730 278.099823,195.809647 279.260193,193.851181 
	C281.501038,190.069016 284.713318,190.705276 288.413757,191.305832 
	C299.875275,193.166016 305.754730,201.138611 310.244263,210.599197 
	C316.740204,224.287720 319.777618,238.906540 321.398285,253.891861 
	C322.293793,262.171967 323.332184,270.446625 323.217377,278.778198 
	C323.103668,287.030182 319.876587,294.025482 313.315735,299.160400 
	C309.168427,302.406311 308.033081,301.424438 306.512421,296.631042 
	C303.454407,286.991638 308.538666,277.687225 306.816101,268.035431 
	C305.368896,259.926514 305.296661,251.562134 303.042999,243.506119 
	C301.505615,252.039124 302.129486,260.575592 302.626770,269.111786 
	C302.742523,271.098724 303.008362,273.114990 302.803650,275.075836 
	C302.019653,282.585114 299.435852,284.571259 291.953064,283.937592 
	C288.643860,283.657349 285.311035,283.601074 281.987793,283.571045 
	C280.821747,283.560486 279.514404,283.896484 279.400177,285.387024 
	C279.263580,287.170380 280.593170,287.674866 282.020752,287.657532 
	C286.013885,287.609009 290.015472,287.576843 293.994873,287.283020 
	C297.260559,287.041901 299.169922,287.573761 299.724945,291.507172 
	C300.642181,298.007843 300.595184,304.498383 300.228302,310.955536 
	C298.698608,337.878998 297.062744,364.799042 295.070343,391.691040 
	C294.743408,396.103790 296.157104,398.206573 299.794037,399.682098 
	C301.177765,400.243439 302.525208,400.916138 303.829437,401.644958 
	C304.965912,402.280029 305.464722,403.322052 304.986938,404.600708 
	C304.561096,405.740417 303.498230,405.906219 302.493652,405.759094 
	C294.754028,404.625671 286.806000,404.182281 279.364197,402.011200 
	C274.550140,400.606720 275.045471,394.618774 274.880432,390.487885 
	C274.441681,379.507507 274.734131,368.497864 274.735901,356.999878 
M256.866272,285.059601 
	C255.537033,285.132965 254.204483,285.170227 252.879745,285.292511 
	C252.006729,285.373138 251.224243,285.743408 251.153381,286.746063 
	C251.067017,287.967560 251.825653,288.703400 252.948456,288.659973 
	C258.588928,288.441742 264.389648,289.540833 270.445526,286.893921 
	C266.028473,284.165863 261.791565,285.303772 256.866272,285.059601 
z"/>
<path fill="#000000" opacity="1.000000" stroke="none" 
	d="
M281.868500,186.851669 
	C273.850403,194.050964 263.970764,192.536102 258.934448,183.578949 
	C257.634766,181.267410 256.711548,178.810349 254.033081,177.556229 
	C252.624176,176.896515 251.780365,175.246780 251.968918,173.788452 
	C252.712723,168.035568 251.109894,162.225037 252.666412,156.485352 
	C254.125092,151.106445 256.820862,147.150803 262.618591,145.885590 
	C264.380646,145.501083 266.146179,144.866089 267.740112,144.024033 
	C274.251801,140.584045 279.178864,141.039825 284.602875,145.763519 
	C289.619690,150.132584 290.904175,155.423035 288.235779,161.919708 
	C287.302673,164.191467 287.248718,166.451447 287.365295,168.761978 
	C287.696442,175.325714 285.983459,181.256760 281.868500,186.851669 
z"/>
<path fill="#000000" opacity="1.000000" stroke="none" 
	d="
M184.715942,326.071777 
	C184.770859,317.660767 184.770859,317.652252 192.663651,317.649506 
	C201.327148,317.646515 209.991104,317.617340 218.653748,317.706604 
	C220.327362,317.723846 222.796112,317.164032 222.890778,319.881897 
	C222.971375,322.196503 220.787903,322.132355 219.184158,322.214081 
	C216.025223,322.375092 215.418701,324.337341 215.427429,326.972168 
	C215.444000,331.970245 215.402496,336.968964 215.328934,341.966614 
	C215.307434,343.429016 215.479446,345.196167 213.238998,345.214691 
	C211.150589,345.231964 210.904114,343.647400 210.879593,342.092041 
	C210.800797,337.094574 210.701370,332.094727 210.779465,327.098450 
	C210.831650,323.760529 209.475342,322.141022 206.055130,322.224152 
	C202.060776,322.321228 198.062576,322.248199 194.066849,322.305878 
	C192.042206,322.335144 190.453049,323.026642 190.292313,325.388123 
	C190.120392,327.914307 191.594589,329.029633 193.841156,329.340118 
	C195.321350,329.544708 196.831680,329.522675 198.318314,329.691925 
	C199.545197,329.831573 200.650131,330.299011 200.673401,331.770508 
	C200.695358,333.159180 199.801971,333.861389 198.513474,334.073364 
	C197.859573,334.180969 197.175598,334.287720 196.526276,334.212677 
	C191.266174,333.604401 188.585266,335.518890 189.268387,341.192078 
	C189.450119,342.701172 189.740189,344.928711 187.286484,345.033295 
	C184.525284,345.150940 184.822571,342.796906 184.787384,341.054688 
	C184.689880,336.224701 184.731415,331.391968 184.715942,326.071777 
z"/>
<path fill="#000000" opacity="1.000000" stroke="none" 
	d="
M373.166412,341.312012 
	C384.676422,341.328674 384.672333,341.328674 384.682526,330.308990 
	C384.685303,327.310303 384.669342,324.310028 384.763123,321.313629 
	C384.810028,319.815002 384.928192,318.105347 386.998627,318.054779 
	C389.106628,318.003235 389.285065,319.731689 389.314575,321.221405 
	C389.400330,325.551025 389.355621,329.883301 389.359161,334.214508 
	C389.364532,340.795044 390.004608,341.335236 396.335663,341.653900 
	C398.387817,341.757172 402.067505,340.265045 402.130585,343.448578 
	C402.196167,346.758301 398.495819,345.306122 396.479980,345.356812 
	C387.706940,345.577362 378.926453,345.483154 370.149902,345.596008 
	C367.125122,345.634918 364.857513,345.110046 364.904358,341.360718 
	C364.985565,334.864685 364.886566,328.365906 365.020935,321.871521 
	C365.052643,320.339813 364.934113,318.124908 367.267090,318.061981 
	C369.779968,317.994171 369.283356,320.272369 369.454865,321.786652 
	C369.942963,326.096619 369.969727,330.415833 369.742523,334.758789 
	C369.608124,337.328033 369.257294,340.306458 373.166412,341.312012 
z"/>
<path fill="#000000" opacity="1.000000" stroke="none" 
	d="
M173.675949,317.675964 
	C179.823425,319.452698 181.432495,321.964813 181.808929,330.392822 
	C182.072006,336.283234 182.182129,342.319458 175.596313,345.298492 
	C168.987106,348.288055 162.012955,344.220093 161.004227,336.622253 
	C160.530273,333.052551 160.627914,329.307465 161.119064,325.731476 
	C161.934601,319.793335 165.468750,317.634857 173.675949,317.675964 
M165.568237,331.807312 
	C165.467575,338.681732 167.213928,341.680817 171.269318,341.598053 
	C175.192780,341.518036 176.783539,338.860504 176.900879,332.190369 
	C176.903809,332.023987 176.917206,331.857269 176.910706,331.691284 
	C176.750153,327.594788 177.587479,322.821381 171.735825,321.922028 
	C168.030304,321.352509 166.297882,324.149628 165.568237,331.807312 
z"/>
<path fill="#000000" opacity="1.000000" stroke="none" 
	d="
M343.682800,335.597626 
	C338.898163,334.185577 338.772919,337.475464 338.287964,340.454529 
	C337.994781,342.255402 338.854279,345.076538 335.831238,344.964569 
	C332.848877,344.854095 333.705811,342.030823 333.674255,340.262695 
	C333.561646,333.954346 333.642273,327.641663 333.718292,321.331451 
	C333.735962,319.866241 333.725220,318.096954 335.865906,318.081146 
	C337.907257,318.066040 338.049438,319.703766 338.230225,321.234589 
	C338.474335,323.301697 337.792999,325.556213 339.419006,327.640747 
	C344.891327,325.919373 345.564728,317.588318 352.690765,317.750000 
	C352.921326,321.376953 350.371674,322.910583 348.839294,324.829956 
	C346.438934,327.836609 346.143738,330.405426 348.230408,333.824036 
	C350.330750,337.265015 353.167755,340.428009 354.138947,345.105804 
	C346.943878,345.685333 347.322754,338.640381 343.682800,335.597626 
z"/>
<path fill="#000000" opacity="1.000000" stroke="none" 
	d="
M156.160950,319.064392 
	C158.089615,322.352936 156.667358,323.257233 153.780075,322.897095 
	C152.644943,322.755524 151.572357,322.171356 150.444992,321.896576 
	C147.785065,321.248230 145.576614,322.217743 144.850952,324.741058 
	C144.037552,327.569458 146.518387,328.341187 148.619980,328.975739 
	C149.882324,329.356934 151.248993,329.400726 152.501648,329.804443 
	C156.192383,330.993896 159.406464,332.855103 159.151031,337.351898 
	C158.913223,341.538483 156.827484,344.399323 152.482544,345.600037 
	C148.501709,346.700165 144.915222,345.923981 141.405670,344.210846 
	C140.000977,343.525146 138.796768,342.393036 139.790604,340.637909 
	C140.637527,339.142273 142.054825,339.490814 143.300095,340.135284 
	C145.740799,341.398346 148.256424,342.131805 150.973572,341.281677 
	C152.652634,340.756348 154.009659,339.753967 154.027649,337.791901 
	C154.043762,336.032776 152.793930,335.078308 151.319962,334.599884 
	C149.428833,333.986145 147.433533,333.697571 145.532455,333.109406 
	C141.322708,331.806946 139.143585,328.991852 139.734940,324.494995 
	C140.289490,320.278076 142.903809,318.009521 147.072327,317.682800 
	C150.055206,317.449036 153.073883,317.382324 156.160950,319.064392 
z"/>
<path fill="#000000" opacity="1.000000" stroke="none" 
	d="
M318.427734,346.046265 
	C316.456146,345.408356 314.829987,344.983765 313.341461,344.271576 
	C312.025269,343.641907 310.411926,342.833893 311.307709,340.913269 
	C312.144409,339.119324 313.682983,339.399139 315.155975,340.116028 
	C317.284180,341.151825 319.457397,342.042572 321.871277,341.427094 
	C323.705200,340.959473 325.470093,340.191833 325.486511,337.908203 
	C325.500580,335.945038 324.141388,334.962738 322.416748,334.462585 
	C320.499542,333.906616 318.513428,333.553223 316.644836,332.871704 
	C312.849365,331.487366 311.273590,328.640961 311.636047,324.653473 
	C312.007751,320.563843 314.382874,318.274536 318.285736,317.742645 
	C321.243500,317.339508 324.297791,317.197479 327.102081,318.634552 
	C328.158722,319.176025 329.203705,320.017853 328.769531,321.361267 
	C328.293671,322.833862 327.062469,323.361908 325.557739,322.858826 
	C322.195343,321.734589 317.841400,319.960815 316.940887,324.859589 
	C316.095184,329.460266 321.207397,328.851501 324.163727,329.750092 
	C328.013672,330.920258 330.835907,333.018738 330.860046,337.363495 
	C330.884552,341.772095 328.475616,344.440796 324.248810,345.592316 
	C322.458710,346.079987 320.688690,346.450714 318.427734,346.046265 
z"/>
<path fill="#000000" opacity="1.000000" stroke="none" 
	d="
M418.417908,338.678589 
	C418.091492,333.577576 414.024414,334.158691 411.038391,333.381866 
	C404.476410,331.674835 402.011963,324.700806 406.428894,319.983704 
	C408.976837,317.262604 417.579865,316.746948 420.453156,319.113007 
	C421.293243,319.804779 421.828613,320.519653 421.330444,321.648621 
	C420.767670,322.924011 419.761841,323.308044 418.488953,322.999603 
	C417.041748,322.648926 415.638275,322.023895 414.176270,321.849457 
	C411.907471,321.578796 410.213104,322.728760 409.675171,324.901703 
	C409.184052,326.885406 410.743103,327.961121 412.324615,328.584106 
	C413.853210,329.186249 415.523132,329.419739 417.112061,329.880432 
	C420.774139,330.942291 423.347534,332.971680 423.376343,337.167084 
	C423.404755,341.304901 421.572479,343.995789 417.544556,345.394073 
	C413.638245,346.750092 410.010803,346.035522 406.421082,344.554138 
	C404.872009,343.914886 403.210327,342.934509 404.205200,340.845703 
	C405.100494,338.965973 406.617767,339.786987 408.060303,340.343933 
	C411.695374,341.747223 415.377441,343.113007 418.417908,338.678589 
z"/>
<path fill="#000000" opacity="1.000000" stroke="none" 
	d="
M360.922180,318.951691 
	C361.764435,326.778015 361.202881,334.220642 361.124451,341.660675 
	C361.106720,343.342041 360.874634,345.171967 358.543823,345.118378 
	C356.500732,345.071381 356.283447,343.428833 356.292847,341.907227 
	C356.335663,334.963989 356.395233,328.019897 356.561737,321.078827 
	C356.629791,318.242218 357.490479,316.264862 360.922180,318.951691 
z"/>
<path fill="#000000" opacity="1.000000" stroke="none" 
	d="
M292.011414,492.960449 
	C290.744324,493.701569 289.296417,494.733582 288.352844,492.711151 
	C287.172272,490.180634 288.248962,488.018890 290.167755,485.681061 
	C292.492432,487.524689 292.516174,489.804718 292.040833,492.628113 
	C291.954681,493.027130 291.993469,492.983490 292.011414,492.960449 
z"/>
</svg>